<svg id="Ebene_1" data-name="Ebene 1" xmlns="http://www.w3.org/2000/svg" viewBox="0 0 73.99 49.55"><defs><style>.cls-1{fill:#0080a4;}.cls-2{fill:#c62a22;}</style></defs><path class="cls-1" d="M66.08,35.39v-1h2.68v1Z" transform="translate(-2.68 -2.58)"/><path class="cls-1" d="M61.46,52V50.74h.71V52Z" transform="translate(-2.68 -2.58)"/><path class="cls-1" d="M67.05,52.12a2.38,2.38,0,0,1-1.47-.39,2.05,2.05,0,0,1-.7-1.06,5.28,5.28,0,0,1-.19-1.47V45.07a5.29,5.29,0,0,1,.2-1.5,2,2,0,0,1,.72-1,2.44,2.44,0,0,1,1.44-.38,2.35,2.35,0,0,1,1.34.34,1.82,1.82,0,0,1,.68,1,4.58,4.58,0,0,1,.2,1.45v.49h-.62V44.9a4.47,4.47,0,0,0-.13-1.18A1.33,1.33,0,0,0,68,43a1.58,1.58,0,0,0-1-.27A1.69,1.69,0,0,0,66,43a1.42,1.42,0,0,0-.51.81,4.74,4.74,0,0,0-.13,1.2v4.29a4.84,4.84,0,0,0,.14,1.23,1.47,1.47,0,0,0,.52.79,1.76,1.76,0,0,0,1,.27,1.59,1.59,0,0,0,1-.27,1.38,1.38,0,0,0,.47-.78,4.39,4.39,0,0,0,.13-1.15v-.59h.62v.48a5.09,5.09,0,0,1-.19,1.47,1.93,1.93,0,0,1-.67,1A2.22,2.22,0,0,1,67.05,52.12Z" transform="translate(-2.68 -2.58)"/><path class="cls-1" d="M72,52V42.27h.66v4.38H76V42.27h.65V52H76V47.16H72.61V52Z" transform="translate(-2.68 -2.58)"/><path class="cls-2" d="M14.76,25.05V2.58h4.91a6.08,6.08,0,0,1,3.5.86,4.48,4.48,0,0,1,1.74,2.33A9.93,9.93,0,0,1,25.41,9v9.32a10.72,10.72,0,0,1-.5,3.43,4.69,4.69,0,0,1-1.7,2.39,5.76,5.76,0,0,1-3.4.87Zm1.5-1.19h3.46a4,4,0,0,0,2.72-.78A3.69,3.69,0,0,0,23.61,21a13,13,0,0,0,.28-2.81v-9a10.78,10.78,0,0,0-.34-2.84A3.18,3.18,0,0,0,22.3,4.45a4.5,4.5,0,0,0-2.63-.65H16.26Z" transform="translate(-2.68 -2.58)"/><path class="cls-1" d="M8.28,25.05a5.76,5.76,0,0,1-3.4-.87,4.69,4.69,0,0,1-1.7-2.39,10.72,10.72,0,0,1-.5-3.43V9a9.93,9.93,0,0,1,.5-3.27A4.48,4.48,0,0,1,4.92,3.44a6.08,6.08,0,0,1,3.5-.86h4.91V25.05ZM11.83,3.8H8.42a4.55,4.55,0,0,0-2.64.65A3.21,3.21,0,0,0,4.54,6.31,10.38,10.38,0,0,0,4.2,9.15v9A13,13,0,0,0,4.48,21a3.68,3.68,0,0,0,1.16,2.07,4.05,4.05,0,0,0,2.72.78h3.47Z" transform="translate(-2.68 -2.58)"/><path class="cls-1" d="M14.76,38.52V28.8h2.11a3.71,3.71,0,0,1,1.71.33,1.89,1.89,0,0,1,.9,1,4.36,4.36,0,0,1,.27,1.64v3.58a4.89,4.89,0,0,1-.27,1.74,2.07,2.07,0,0,1-.87,1.07,3.1,3.1,0,0,1-1.63.37Zm1.35-1h.77a1.56,1.56,0,0,0,1.06-.29,1.32,1.32,0,0,0,.38-.84,12.57,12.57,0,0,0,.06-1.33V31.93a6.69,6.69,0,0,0-.09-1.22,1.08,1.08,0,0,0-.42-.69,1.94,1.94,0,0,0-1-.21h-.74Z" transform="translate(-2.68 -2.58)"/><path class="cls-1" d="M22.36,38.52V28.8h1.33v9.72Z" transform="translate(-2.68 -2.58)"/><path class="cls-1" d="M25.93,38.52,28,28.8H29.3l2.08,9.72H30.09l-.44-2.45h-2l-.47,2.45Zm1.92-3.42h1.62l-.82-4.38Z" transform="translate(-2.68 -2.58)"/><path class="cls-1" d="M33.56,38.52V28.8h2.23a4.31,4.31,0,0,1,1.15.14,2.13,2.13,0,0,1,.81.45,1.71,1.71,0,0,1,.48.76,3.51,3.51,0,0,1,.16,1.08,3.22,3.22,0,0,1-.15,1,1.48,1.48,0,0,1-.46.69,1.58,1.58,0,0,1-.79.33,2,2,0,0,1,.95.45,1.93,1.93,0,0,1,.54.81,3.81,3.81,0,0,1,.17,1.2,4.56,4.56,0,0,1-.14,1.14,2.4,2.4,0,0,1-.45.87,2.11,2.11,0,0,1-.78.56,3,3,0,0,1-1.13.2Zm1.36-5.67h.8a2,2,0,0,0,.9-.16.91.91,0,0,0,.46-.52,2.73,2.73,0,0,0,.13-.94,1.85,1.85,0,0,0-.2-1,1,1,0,0,0-.64-.38,6.92,6.92,0,0,0-1.13-.07h-.32Zm0,4.7h.91a1.45,1.45,0,0,0,1.22-.43,2.42,2.42,0,0,0,.3-1.37,2.82,2.82,0,0,0-.16-1,1.22,1.22,0,0,0-.51-.62,1.9,1.9,0,0,0-1-.21h-.8Z" transform="translate(-2.68 -2.58)"/><path class="cls-1" d="M41.05,38.52V28.8h3.77v1H42.41V33h2v1h-2v3.57h2.43v1Z" transform="translate(-2.68 -2.58)"/><path class="cls-1" d="M48.2,38.52V29.81H46.56v-1h4.59v1H49.56v8.71Z" transform="translate(-2.68 -2.58)"/><path class="cls-1" d="M53.29,38.52V28.8h3.77v1H54.65V33h2v1h-2v3.57h2.43v1Z" transform="translate(-2.68 -2.58)"/><path class="cls-1" d="M61.67,38.63a2.53,2.53,0,0,1-1.4-.36,2.31,2.31,0,0,1-.85-1,4.13,4.13,0,0,1-.33-1.48l1.2-.32a4.74,4.74,0,0,0,.16,1,1.71,1.71,0,0,0,.41.78,1,1,0,0,0,.81.31,1,1,0,0,0,.79-.3,1.18,1.18,0,0,0,.27-.84,1.71,1.71,0,0,0-.3-1.06,5.54,5.54,0,0,0-.75-.81l-1.63-1.44a2.75,2.75,0,0,1-.71-.92A3,3,0,0,1,59.11,31a2.19,2.19,0,0,1,.61-1.66,2.33,2.33,0,0,1,1.67-.59,3.11,3.11,0,0,1,1,.15,1.78,1.78,0,0,1,.74.47,2.21,2.21,0,0,1,.46.78,4.33,4.33,0,0,1,.24,1.11l-1.15.31a5.56,5.56,0,0,0-.15-.88,1.33,1.33,0,0,0-.38-.65,1.11,1.11,0,0,0-.77-.24,1.1,1.1,0,0,0-.79.27,1.08,1.08,0,0,0-.28.8,1.58,1.58,0,0,0,.15.73,2.1,2.1,0,0,0,.49.59l1.64,1.44a5.13,5.13,0,0,1,1,1.14A2.91,2.91,0,0,1,64,36.31a2.45,2.45,0,0,1-.3,1.24,2,2,0,0,1-.82.8A2.59,2.59,0,0,1,61.67,38.63Z" transform="translate(-2.68 -2.58)"/><path class="cls-1" d="M14.79,52V42.27h2.12a3.71,3.71,0,0,1,1.71.33,1.89,1.89,0,0,1,.9,1,4.33,4.33,0,0,1,.27,1.64v3.58a5,5,0,0,1-.27,1.74,2.08,2.08,0,0,1-.88,1.07A3.13,3.13,0,0,1,17,52Zm1.36-1h.77A1.58,1.58,0,0,0,18,50.73a1.37,1.37,0,0,0,.37-.84,10.33,10.33,0,0,0,.07-1.34V45.4a5.9,5.9,0,0,0-.1-1.23,1,1,0,0,0-.42-.68,1.88,1.88,0,0,0-1-.22h-.73Z" transform="translate(-2.68 -2.58)"/><path class="cls-1" d="M24.8,52.09a2.81,2.81,0,0,1-1.57-.38,2.13,2.13,0,0,1-.84-1.1,4.93,4.93,0,0,1-.25-1.67V45.25a4.76,4.76,0,0,1,.26-1.65,2,2,0,0,1,.84-1.05,2.84,2.84,0,0,1,1.56-.37,2.9,2.9,0,0,1,1.56.37,2.07,2.07,0,0,1,.84,1.06,4.71,4.71,0,0,1,.25,1.64V49a5,5,0,0,1-.25,1.66,2.14,2.14,0,0,1-.84,1.09A2.73,2.73,0,0,1,24.8,52.09Zm0-1.06a1.27,1.27,0,0,0,.82-.23,1.05,1.05,0,0,0,.37-.62,4.3,4.3,0,0,0,.1-.94V45a4.14,4.14,0,0,0-.1-.93,1,1,0,0,0-.37-.6,1.34,1.34,0,0,0-.82-.21,1.36,1.36,0,0,0-.82.21,1,1,0,0,0-.38.6,4.19,4.19,0,0,0-.09.93v4.26a4.35,4.35,0,0,0,.09.94,1.06,1.06,0,0,0,.38.62A1.29,1.29,0,0,0,24.8,51Z" transform="translate(-2.68 -2.58)"/><path class="cls-1" d="M32.28,52.09a2.53,2.53,0,0,1-1.4-.36,2.35,2.35,0,0,1-.85-1,4.18,4.18,0,0,1-.33-1.48l1.2-.32a5.38,5.38,0,0,0,.16,1,1.75,1.75,0,0,0,.41.79,1.08,1.08,0,0,0,.81.31,1,1,0,0,0,.8-.3,1.19,1.19,0,0,0,.27-.84,1.76,1.76,0,0,0-.3-1.07,6.93,6.93,0,0,0-.76-.81l-1.63-1.44a2.72,2.72,0,0,1-.71-.91,3,3,0,0,1-.23-1.23,2.21,2.21,0,0,1,.61-1.66A2.33,2.33,0,0,1,32,42.18a3.17,3.17,0,0,1,1,.15,1.9,1.9,0,0,1,.73.46,2.44,2.44,0,0,1,.47.79,4.82,4.82,0,0,1,.23,1.11L33.3,45a4.61,4.61,0,0,0-.15-.88,1.31,1.31,0,0,0-.37-.65,1.14,1.14,0,0,0-.78-.24,1.07,1.07,0,0,0-.78.27,1,1,0,0,0-.29.79,1.62,1.62,0,0,0,.15.74,2.26,2.26,0,0,0,.49.58l1.64,1.44a5.23,5.23,0,0,1,1,1.15,2.89,2.89,0,0,1,.42,1.58,2.45,2.45,0,0,1-.3,1.24,2.06,2.06,0,0,1-.83.8A2.56,2.56,0,0,1,32.28,52.09Z" transform="translate(-2.68 -2.58)"/><path class="cls-1" d="M39.15,52.09a2.5,2.5,0,0,1-1.39-.36,2.22,2.22,0,0,1-.85-1,4.41,4.41,0,0,1-.34-1.48l1.2-.32a5.39,5.39,0,0,0,.17,1,1.75,1.75,0,0,0,.41.79,1.06,1.06,0,0,0,.8.31,1,1,0,0,0,.8-.3,1.19,1.19,0,0,0,.27-.84,1.76,1.76,0,0,0-.3-1.07,6.78,6.78,0,0,0-.75-.81l-1.64-1.44a2.69,2.69,0,0,1-.7-.91,2.87,2.87,0,0,1-.23-1.23,2.17,2.17,0,0,1,.61-1.66,2.31,2.31,0,0,1,1.67-.59,3.11,3.11,0,0,1,1,.15,1.82,1.82,0,0,1,.73.46,2.13,2.13,0,0,1,.47.79,4.33,4.33,0,0,1,.24,1.11L40.17,45a4.63,4.63,0,0,0-.14-.88,1.33,1.33,0,0,0-.38-.65,1.13,1.13,0,0,0-.77-.24,1.1,1.1,0,0,0-.79.27,1,1,0,0,0-.28.79A1.62,1.62,0,0,0,38,45a2.07,2.07,0,0,0,.49.58l1.64,1.44a5.19,5.19,0,0,1,1,1.15,2.89,2.89,0,0,1,.42,1.58,2.45,2.45,0,0,1-.3,1.24,2,2,0,0,1-.82.8A2.6,2.6,0,0,1,39.15,52.09Z" transform="translate(-2.68 -2.58)"/><path class="cls-1" d="M43.81,52V42.27h1.33V52Z" transform="translate(-2.68 -2.58)"/><path class="cls-1" d="M47.91,52V42.27h3.77v1H49.27v3.22h2v1h-2V51h2.44v1Z" transform="translate(-2.68 -2.58)"/><path class="cls-1" d="M54,52V42.27h2a4.35,4.35,0,0,1,1.61.25,1.79,1.79,0,0,1,.94.83,3.1,3.1,0,0,1,.31,1.5,4.08,4.08,0,0,1-.12,1,2,2,0,0,1-.38.78,1.48,1.48,0,0,1-.7.46L59,52H57.68l-1.27-4.56H55.35V52Zm1.35-5.54h.52a2.52,2.52,0,0,0,.94-.14,1,1,0,0,0,.52-.49,2.16,2.16,0,0,0,.17-1,1.91,1.91,0,0,0-.31-1.23A1.54,1.54,0,0,0,56,43.24h-.6Z" transform="translate(-2.68 -2.58)"/></svg>