<svg id="Ebene_1" data-name="Ebene 1" xmlns="http://www.w3.org/2000/svg" viewBox="0 0 22.73 22.47"><defs><style>.cls-1{fill:#c62a22;}.cls-2{fill:#0080a4;}</style></defs><path class="cls-1" d="M14.89,25.41V2.94H19.8a6,6,0,0,1,3.49.86A4.45,4.45,0,0,1,25,6.13a9.93,9.93,0,0,1,.5,3.27v9.32a10.72,10.72,0,0,1-.5,3.43,4.69,4.69,0,0,1-1.7,2.39,5.76,5.76,0,0,1-3.4.87Zm1.49-1.19h3.47a4,4,0,0,0,2.72-.78,3.69,3.69,0,0,0,1.17-2.07A13.72,13.72,0,0,0,24,18.56v-9a10.78,10.78,0,0,0-.34-2.84,3.18,3.18,0,0,0-1.25-1.86,4.52,4.52,0,0,0-2.63-.65H16.38Z" transform="translate(-2.81 -2.94)"/><path class="cls-2" d="M8.41,25.41A5.76,5.76,0,0,1,5,24.54,4.77,4.77,0,0,1,3.3,22.15a11,11,0,0,1-.49-3.43V9.4A10.21,10.21,0,0,1,3.3,6.13,4.56,4.56,0,0,1,5.05,3.8a6.08,6.08,0,0,1,3.5-.86h4.91V25.41ZM12,4.16H8.55a4.55,4.55,0,0,0-2.64.65A3.27,3.27,0,0,0,4.66,6.67a10.81,10.81,0,0,0-.33,2.84v9a13.06,13.06,0,0,0,.28,2.81,3.68,3.68,0,0,0,1.16,2.07,4.05,4.05,0,0,0,2.72.78H12Z" transform="translate(-2.81 -2.94)"/></svg>