<svg id="Ebene_1" data-name="Ebene 1" xmlns="http://www.w3.org/2000/svg" viewBox="0 0 130.5 36.07"><defs><style>.cls-1{fill:#c62a22;}.cls-2{fill:#0080a4;}</style></defs><path class="cls-1" d="M16.64,25.79V3.31h4.92a6.12,6.12,0,0,1,3.49.86A4.54,4.54,0,0,1,26.8,6.5a10.22,10.22,0,0,1,.5,3.28V19.1a11,11,0,0,1-.5,3.43,4.63,4.63,0,0,1-1.71,2.38,5.73,5.73,0,0,1-3.4.88Zm1.5-1.2h3.47a4.09,4.09,0,0,0,2.72-.77,3.75,3.75,0,0,0,1.17-2.07,13.78,13.78,0,0,0,.27-2.82v-9A10.94,10.94,0,0,0,25.44,7a3.29,3.29,0,0,0-1.25-1.86,4.54,4.54,0,0,0-2.63-.65H18.14Z" transform="translate(-4.56 -3.31)"/><path class="cls-2" d="M10.17,25.79a5.73,5.73,0,0,1-3.4-.88,4.63,4.63,0,0,1-1.71-2.38,11,11,0,0,1-.5-3.43V9.78a10.22,10.22,0,0,1,.5-3.28A4.54,4.54,0,0,1,6.81,4.17a6.12,6.12,0,0,1,3.49-.86h4.92V25.79ZM13.72,4.53H10.3a4.54,4.54,0,0,0-2.63.65A3.29,3.29,0,0,0,6.42,7a10.94,10.94,0,0,0-.33,2.85v9a13.78,13.78,0,0,0,.27,2.82,3.75,3.75,0,0,0,1.17,2.07,4.09,4.09,0,0,0,2.72.77h3.47Z" transform="translate(-4.56 -3.31)"/><path class="cls-2" d="M16.64,39.25V29.53h2.12a3.71,3.71,0,0,1,1.71.33,1.89,1.89,0,0,1,.9,1,4.38,4.38,0,0,1,.27,1.65v3.57a4.89,4.89,0,0,1-.27,1.74,2.11,2.11,0,0,1-.88,1.08,3.16,3.16,0,0,1-1.62.36Zm1.36-1h.77A1.51,1.51,0,0,0,19.83,38a1.32,1.32,0,0,0,.37-.84,10.07,10.07,0,0,0,.07-1.33V32.67a5.84,5.84,0,0,0-.1-1.23,1,1,0,0,0-.42-.68,1.8,1.8,0,0,0-1-.22H18Z" transform="translate(-4.56 -3.31)"/><path class="cls-2" d="M24.24,39.25V29.53h1.33v9.72Z" transform="translate(-4.56 -3.31)"/><path class="cls-2" d="M27.82,39.25l2.06-9.72h1.31l2.07,9.72H32l-.44-2.45h-2l-.47,2.45Zm1.92-3.42h1.62l-.82-4.38Z" transform="translate(-4.56 -3.31)"/><path class="cls-2" d="M35.45,39.25V29.53h2.23a4,4,0,0,1,1.15.15,1.8,1.8,0,0,1,1.29,1.2A3.54,3.54,0,0,1,40.27,32a3.26,3.26,0,0,1-.15,1,1.54,1.54,0,0,1-.45.69,1.71,1.71,0,0,1-.79.32,2.16,2.16,0,0,1,.95.45,1.85,1.85,0,0,1,.53.82,3.51,3.51,0,0,1,.18,1.19,4,4,0,0,1-.15,1.14,2.16,2.16,0,0,1-.45.88,1.94,1.94,0,0,1-.78.55,2.73,2.73,0,0,1-1.12.2Zm1.35-5.66h.81a2,2,0,0,0,.9-.16A.85.85,0,0,0,39,32.9,2.64,2.64,0,0,0,39.1,32a1.72,1.72,0,0,0-.21-1,.91.91,0,0,0-.63-.38,6.84,6.84,0,0,0-1.13-.08H36.8Zm0,4.69h.92a1.46,1.46,0,0,0,1.22-.42,2.48,2.48,0,0,0,.3-1.38,2.73,2.73,0,0,0-.16-1,1.21,1.21,0,0,0-.52-.63,1.83,1.83,0,0,0-1-.21H36.8Z" transform="translate(-4.56 -3.31)"/><path class="cls-2" d="M42.94,39.25V29.53H46.7v1H44.29v3.22h2v1h-2v3.56h2.44v1Z" transform="translate(-4.56 -3.31)"/><path class="cls-2" d="M50.09,39.25V30.54H48.44v-1H53v1h-1.6v8.71Z" transform="translate(-4.56 -3.31)"/><path class="cls-2" d="M55.18,39.25V29.53h3.76v1H56.53v3.22h2v1h-2v3.56H59v1Z" transform="translate(-4.56 -3.31)"/><path class="cls-2" d="M63.55,39.36a2.56,2.56,0,0,1-1.4-.36,2.26,2.26,0,0,1-.84-1A4.18,4.18,0,0,1,61,36.53l1.2-.32a6.39,6.39,0,0,0,.16,1,1.93,1.93,0,0,0,.42.79,1.23,1.23,0,0,0,1.6,0,1.22,1.22,0,0,0,.27-.85,1.73,1.73,0,0,0-.3-1.06,5.13,5.13,0,0,0-.76-.81l-1.63-1.44a2.78,2.78,0,0,1-.71-.92A3,3,0,0,1,61,31.69,2.17,2.17,0,0,1,61.61,30a2.31,2.31,0,0,1,1.67-.59,3.11,3.11,0,0,1,1,.15,1.72,1.72,0,0,1,.73.46,2.27,2.27,0,0,1,.47.79A4.17,4.17,0,0,1,65.72,32l-1.15.31a4.63,4.63,0,0,0-.14-.88,1.28,1.28,0,0,0-.38-.65,1.13,1.13,0,0,0-.77-.25,1.1,1.1,0,0,0-.79.27,1.05,1.05,0,0,0-.28.8,1.55,1.55,0,0,0,.15.73,2.22,2.22,0,0,0,.48.59l1.65,1.44a5,5,0,0,1,1,1.15,2.89,2.89,0,0,1,.42,1.58,2.45,2.45,0,0,1-.3,1.24,2.1,2.1,0,0,1-.82.8A2.6,2.6,0,0,1,63.55,39.36Z" transform="translate(-4.56 -3.31)"/><path class="cls-2" d="M68,36.12v-1h2.67v1Z" transform="translate(-4.56 -3.31)"/><path class="cls-2" d="M73.19,39.25V29.53H75.3a3.71,3.71,0,0,1,1.71.33,1.89,1.89,0,0,1,.9,1,4.38,4.38,0,0,1,.27,1.65v3.57a4.89,4.89,0,0,1-.27,1.74A2.09,2.09,0,0,1,77,38.89a3.2,3.2,0,0,1-1.63.36Zm1.35-1h.77A1.51,1.51,0,0,0,76.37,38a1.32,1.32,0,0,0,.38-.84,12.44,12.44,0,0,0,.06-1.33V32.67a6.73,6.73,0,0,0-.09-1.23,1.06,1.06,0,0,0-.42-.68,1.84,1.84,0,0,0-1-.22h-.74Z" transform="translate(-4.56 -3.31)"/><path class="cls-2" d="M83.2,39.36A2.93,2.93,0,0,1,81.62,39a2.06,2.06,0,0,1-.83-1.1,5,5,0,0,1-.26-1.67V32.52a4.76,4.76,0,0,1,.26-1.65,2,2,0,0,1,.84-1.05,3.49,3.49,0,0,1,3.13,0,2.1,2.1,0,0,1,.83,1.06,4.66,4.66,0,0,1,.26,1.64v3.7a4.84,4.84,0,0,1-.26,1.65,2.16,2.16,0,0,1-.83,1.1A2.77,2.77,0,0,1,83.2,39.36Zm0-1.07a1.24,1.24,0,0,0,.81-.22,1.06,1.06,0,0,0,.37-.62,3.82,3.82,0,0,0,.1-.94V32.25a3.58,3.58,0,0,0-.1-.93,1,1,0,0,0-.37-.61,1.38,1.38,0,0,0-.81-.2,1.47,1.47,0,0,0-.83.2,1.09,1.09,0,0,0-.37.61,3.58,3.58,0,0,0-.1.93v4.26a3.82,3.82,0,0,0,.1.94,1.12,1.12,0,0,0,.37.62A1.32,1.32,0,0,0,83.2,38.29Z" transform="translate(-4.56 -3.31)"/><path class="cls-2" d="M90.67,39.36a2.56,2.56,0,0,1-1.4-.36,2.26,2.26,0,0,1-.84-1,4.18,4.18,0,0,1-.34-1.48l1.2-.32a6.39,6.39,0,0,0,.16,1,1.93,1.93,0,0,0,.42.79,1.23,1.23,0,0,0,1.6,0,1.22,1.22,0,0,0,.27-.85,1.73,1.73,0,0,0-.3-1.06,5.13,5.13,0,0,0-.76-.81l-1.63-1.44a2.78,2.78,0,0,1-.71-.92,3,3,0,0,1-.22-1.23A2.17,2.17,0,0,1,88.73,30a2.31,2.31,0,0,1,1.67-.59,3.11,3.11,0,0,1,1,.15,1.72,1.72,0,0,1,.73.46,2.27,2.27,0,0,1,.47.79A4.17,4.17,0,0,1,92.84,32l-1.15.31a4.63,4.63,0,0,0-.14-.88,1.28,1.28,0,0,0-.38-.65,1.13,1.13,0,0,0-.77-.25,1.1,1.1,0,0,0-.79.27,1.05,1.05,0,0,0-.28.8,1.55,1.55,0,0,0,.15.73,2.22,2.22,0,0,0,.48.59l1.65,1.44a5,5,0,0,1,1,1.15A2.89,2.89,0,0,1,93,37.05a2.45,2.45,0,0,1-.3,1.24,2.1,2.1,0,0,1-.82.8A2.6,2.6,0,0,1,90.67,39.36Z" transform="translate(-4.56 -3.31)"/><path class="cls-2" d="M97.55,39.36a2.53,2.53,0,0,1-1.4-.36,2.35,2.35,0,0,1-.85-1A4.18,4.18,0,0,1,95,36.53l1.2-.32a5.38,5.38,0,0,0,.16,1,1.81,1.81,0,0,0,.41.79,1.08,1.08,0,0,0,.81.3,1.06,1.06,0,0,0,.8-.29,1.22,1.22,0,0,0,.27-.85,1.73,1.73,0,0,0-.3-1.06,5.64,5.64,0,0,0-.76-.81l-1.63-1.44a2.66,2.66,0,0,1-.71-.92A3,3,0,0,1,95,31.69,2.2,2.2,0,0,1,95.6,30a2.33,2.33,0,0,1,1.67-.59,3.17,3.17,0,0,1,1,.15,1.79,1.79,0,0,1,.73.46,2.44,2.44,0,0,1,.47.79A4.61,4.61,0,0,1,99.72,32l-1.15.31a4.61,4.61,0,0,0-.15-.88,1.27,1.27,0,0,0-.37-.65,1.14,1.14,0,0,0-.78-.25,1.07,1.07,0,0,0-.78.27,1.06,1.06,0,0,0-.29.8,1.55,1.55,0,0,0,.15.73,2.28,2.28,0,0,0,.49.59l1.64,1.44a5,5,0,0,1,1,1.15,2.89,2.89,0,0,1,.42,1.58,2.45,2.45,0,0,1-.3,1.24,2.13,2.13,0,0,1-.83.8A2.56,2.56,0,0,1,97.55,39.36Z" transform="translate(-4.56 -3.31)"/><path class="cls-2" d="M102.2,39.25V29.53h1.34v9.72Z" transform="translate(-4.56 -3.31)"/><path class="cls-2" d="M106.31,39.25V29.53h3.77v1h-2.42v3.22h2v1h-2v3.56h2.44v1Z" transform="translate(-4.56 -3.31)"/><path class="cls-2" d="M112.39,39.25V29.53h2a4.37,4.37,0,0,1,1.61.26,1.82,1.82,0,0,1,.94.83,3.21,3.21,0,0,1,.3,1.49,4.1,4.1,0,0,1-.12,1,1.9,1.9,0,0,1-.38.78,1.48,1.48,0,0,1-.7.46l1.38,4.87h-1.3l-1.28-4.56h-1v4.56Zm1.36-5.53h.51a2.7,2.7,0,0,0,.94-.14,1,1,0,0,0,.53-.49,2.36,2.36,0,0,0,.17-1,1.93,1.93,0,0,0-.32-1.23,1.56,1.56,0,0,0-1.23-.37h-.6Z" transform="translate(-4.56 -3.31)"/><path class="cls-2" d="M119.86,39.25V38h.7v1.24Z" transform="translate(-4.56 -3.31)"/><path class="cls-2" d="M125.45,39.38A2.38,2.38,0,0,1,124,39a2,2,0,0,1-.7-1.06,5.28,5.28,0,0,1-.2-1.47V32.33a4.83,4.83,0,0,1,.21-1.49,1.9,1.9,0,0,1,.72-1,2.4,2.4,0,0,1,1.44-.38,2.31,2.31,0,0,1,1.33.34,1.76,1.76,0,0,1,.68.95,4.57,4.57,0,0,1,.21,1.45v.49H127v-.49a4.47,4.47,0,0,0-.13-1.18,1.33,1.33,0,0,0-.48-.75,1.57,1.57,0,0,0-1-.27,1.73,1.73,0,0,0-1.07.29,1.36,1.36,0,0,0-.5.81,4.71,4.71,0,0,0-.14,1.2v4.29a4.4,4.4,0,0,0,.15,1.23,1.46,1.46,0,0,0,.51.79,1.77,1.77,0,0,0,1,.27,1.58,1.58,0,0,0,1-.27,1.4,1.4,0,0,0,.48-.77,5,5,0,0,0,.12-1.16v-.59h.63v.48a5.59,5.59,0,0,1-.19,1.48,1.92,1.92,0,0,1-.68,1A2.21,2.21,0,0,1,125.45,39.38Z" transform="translate(-4.56 -3.31)"/><path class="cls-2" d="M130.34,39.25V29.53H131v4.38h3.41V29.53h.65v9.72h-.65V34.42H131v4.83Z" transform="translate(-4.56 -3.31)"/></svg>